<svg xmlns:dc="http://purl.org/dc/elements/1.1/" xmlns:cc="http://creativecommons.org/ns#" xmlns:rdf="http://www.w3.org/1999/02/22-rdf-syntax-ns#" xmlns:svg="http://www.w3.org/2000/svg" xmlns="http://www.w3.org/2000/svg" xmlns:sodipodi="http://sodipodi.sourceforge.net/DTD/sodipodi-0.dtd" xmlns:inkscape="http://www.inkscape.org/namespaces/inkscape" viewBox="0 0 100 125" version="1.1" x="0px" y="0px"><g transform="translate(0,-952.36216)"><path style="color:#000000;font-style:normal;font-variant:normal;font-weight:normal;font-stretch:normal;font-size:medium;line-height:normal;font-family:sans-serif;text-indent:0;text-align:start;text-decoration:none;text-decoration-line:none;text-decoration-style:solid;text-decoration-color:#000000;letter-spacing:normal;word-spacing:normal;text-transform:none;direction:ltr;block-progression:tb;writing-mode:lr-tb;baseline-shift:baseline;text-anchor:start;white-space:normal;clip-rule:nonzero;display:inline;overflow:visible;visibility:visible;opacity:1;isolation:auto;mix-blend-mode:normal;color-interpolation:sRGB;color-interpolation-filters:linearRGB;solid-color:#000000;solid-opacity:1;fill:#000000;fill-opacity:1;fill-rule:nonzero;stroke:none;stroke-width:6;stroke-linecap:butt;stroke-linejoin:miter;stroke-miterlimit:4;stroke-dasharray:none;stroke-dashoffset:0;stroke-opacity:1;color-rendering:auto;image-rendering:auto;shape-rendering:auto;text-rendering:auto;enable-background:accumulate" d="m 49.999994,957.36216 c -24.818488,0 -44.999995,20.1815 -44.999995,45.00004 0,24.8185 20.181507,45 44.999995,45 24.818498,0 45.000005,-20.1815 45.000005,-45 0,-24.81854 -20.181507,-45.00004 -45.000005,-45.00004 z m 0,5.78289 c 21.693193,0 39.217105,17.52392 39.217114,39.21715 0,21.6931 -17.523921,39.2171 -39.217114,39.2171 -21.693183,0 -39.217105,-17.524 -39.217105,-39.2171 0,-21.69323 17.523922,-39.21715 39.217105,-39.21715 z"/><path style="" d="m 43.550876,991.8826 a 9.1562431,9.1562431 0 0 1 -9.156243,9.1562 9.1562431,9.1562431 0 0 1 -9.156243,-9.1562 9.1562431,9.1562431 0 0 1 9.156243,-9.15624 9.1562431,9.1562431 0 0 1 9.156243,9.15624 z" fill="#000000" stroke="none"/><path style="" d="m 74.819687,992.00308 a 9.1562431,9.1562431 0 0 1 -9.156243,9.15622 9.1562431,9.1562431 0 0 1 -9.156243,-9.15622 9.1562431,9.1562431 0 0 1 9.156243,-9.15624 9.1562431,9.1562431 0 0 1 9.156243,9.15624 z" fill="#000000" stroke="none"/><path style="color:#000000;font-style:normal;font-variant:normal;font-weight:normal;font-stretch:normal;font-size:medium;line-height:normal;font-family:sans-serif;text-indent:0;text-align:start;text-decoration:none;text-decoration-line:none;text-decoration-style:solid;text-decoration-color:#000000;letter-spacing:normal;word-spacing:normal;text-transform:none;direction:ltr;block-progression:tb;writing-mode:lr-tb;baseline-shift:baseline;text-anchor:start;white-space:normal;clip-rule:nonzero;display:inline;overflow:visible;visibility:visible;opacity:1;isolation:auto;mix-blend-mode:normal;color-interpolation:sRGB;color-interpolation-filters:linearRGB;solid-color:#000000;solid-opacity:1;fill:#000000;fill-opacity:1;fill-rule:nonzero;stroke:none;stroke-width:6;stroke-linecap:butt;stroke-linejoin:miter;stroke-miterlimit:4;stroke-dasharray:none;stroke-dashoffset:0;stroke-opacity:1;color-rendering:auto;image-rendering:auto;shape-rendering:auto;text-rendering:auto;enable-background:accumulate" d="m 69.383597,1011.1118 c -3.005802,8.2926 -10.693384,13.7586 -19.304541,13.7965 -8.611148,0.038 -16.345407,-5.3597 -19.42125,-13.6252 l -5.41957,2.0161 c 3.898217,10.4754 13.815132,17.4388 24.865291,17.3901 11.050159,-0.049 20.907423,-7.0976 24.716594,-17.6066 l -5.436524,-1.9709 z"/></g><text x="0" y="115" fill="#000000" font-size="5px" font-weight="bold" font-family="'Helvetica Neue', Helvetica, Arial-Unicode, Arial, Sans-serif">Created by anbileru adaleru</text><text x="0" y="120" fill="#000000" font-size="5px" font-weight="bold" font-family="'Helvetica Neue', Helvetica, Arial-Unicode, Arial, Sans-serif">from the Noun Project</text></svg>