<svg xmlns="http://www.w3.org/2000/svg" xmlns:xlink="http://www.w3.org/1999/xlink" version="1.1" preserveAspectRatio="none" x="0px" y="0px" viewBox="0 0 100 125"><defs><g id="a"><path fill="#000000" stroke="none" d=" M 81.85 81.85 Q 95 68.65 95 50 95 31.35 81.85 18.2 68.65 5 50 5 31.35 5 18.2 18.2 5 31.35 5 50 5 68.65 18.2 81.85 31.35 95 50 95 68.65 95 81.85 81.85 M 50 12.65 Q 65.55 12.65 76.5 23.55 87.45 34.55 87.45 50 87.45 65.55 76.5 76.45 65.55 87.45 50 87.45 34.55 87.45 23.55 76.45 12.65 65.55 12.65 50 12.65 34.55 23.55 23.55 34.55 12.65 50 12.65 M 34.75 57.1 Q 28.7 62.2 28.65 71.75 28.65 73 29.55 73.85 30.4 74.75 31.65 74.75 L 68.3 74.75 Q 69.55 74.75 70.4 73.85 71.25 73 71.25 71.75 71.2 62 65.25 57 59.8 52.25 49.8 52.25 40.15 52.25 34.75 57.15 L 34.75 57.1 M 26.55 37.75 Q 24.85 39.55 24.85 42.15 24.85 44.7 26.55 46.45 28.4 48.3 30.95 48.3 33.5 48.3 35.25 46.45 37.1 44.7 37.1 42.15 37.1 39.55 35.25 37.75 33.5 36 30.95 36 28.4 36 26.55 37.75 M 19.75 32.45 Q 19.15 33.5 19.5 34.7 19.95 35.85 21 36.45 22.1 36.95 23.25 36.6 L 36.95 32.1 Q 38.1 31.7 38.7 30.6 39.2 29.55 38.85 28.35 38.4 27.2 37.35 26.65 36.3 26.1 35.1 26.45 L 21.4 30.95 Q 20.25 31.35 19.75 32.45 M 64.65 46.45 Q 66.45 48.3 69 48.3 71.55 48.3 73.3 46.45 75.15 44.7 75.15 42.15 75.15 39.55 73.3 37.75 71.55 36 69 36 66.45 36 64.65 37.75 62.9 39.55 62.9 42.15 62.9 44.7 64.65 46.45 M 76.8 36.6 Q 77.95 36.95 79.05 36.45 80.1 35.85 80.5 34.7 80.85 33.5 80.35 32.45 79.8 31.35 78.6 30.95 L 64.95 26.45 Q 63.75 26.1 62.7 26.65 61.6 27.2 61.2 28.35 60.85 29.55 61.4 30.6 61.9 31.7 63.1 32.1 L 76.8 36.6 Z"/></g></defs><g transform="matrix( 1, 0, 0, 1, 0,0) "><use xlink:href="#a"/></g><text x="0" y="115" fill="#000000" font-size="5px" font-weight="bold" font-family="'Helvetica Neue', Helvetica, Arial-Unicode, Arial, Sans-serif">Created by Miso Duzek</text><text x="0" y="120" fill="#000000" font-size="5px" font-weight="bold" font-family="'Helvetica Neue', Helvetica, Arial-Unicode, Arial, Sans-serif">from the Noun Project</text></svg>